<svg id="Layer_1" enable-background="new 0 0 512 512" height="512" viewBox="0 0 512 512" width="512" xmlns="http://www.w3.org/2000/svg"><g><circle cx="256" cy="304" r="80"/><path d="m256 432c70.58 0 128-57.42 128-128s-57.42-128-128-128-128 57.42-128 128 57.42 128 128 128zm0-224c52.93 0 96 43.07 96 96s-43.07 96-96 96-96-43.07-96-96 43.07-96 96-96z"/><path d="m488 112h-464c-13.255 0-24 10.745-24 24v53c0 1.657 1.343 3 3 3h161.537c.675 0 1.329-.233 1.857-.654 52.445-41.781 126.69-41.842 179.211 0 .528.421 1.182.654 1.857.654h161.538c1.657 0 3-1.343 3-3v-53c0-13.255-10.745-24-24-24zm-376 48h-48c-4.42 0-8-3.58-8-8s3.58-8 8-8h48c4.42 0 8 3.58 8 8s-3.58 8-8 8z"/><circle cx="440" cy="416" r="16"/><path d="m400 304c0 79.775-65.212 144.61-145.127 143.996-78.303-.602-142.226-64.492-142.868-142.794-.293-35.747 12.513-68.562 33.893-93.92 1.095-1.299.174-3.281-1.525-3.281h-141.373c-1.657 0-3 1.343-3 3v245c0 13.255 10.745 24 24 24h464c13.255 0 24-10.745 24-24v-245.001c0-1.657-1.343-3-3-3h-141.373c-1.698 0-2.622 1.981-1.527 3.279 21.142 25.074 33.9 57.439 33.9 92.721zm40 80c17.64 0 32 14.35 32 32s-14.36 32-32 32-32-14.35-32-32 14.36-32 32-32z"/><path d="m339.08 49.1c-3.07-10.23-12.3-17.1-22.98-17.1h-120.2c-10.68 0-19.91 6.87-22.98 17.1l-12.911 43.038c-.577 1.925.864 3.862 2.873 3.862h186.236c2.01 0 3.451-1.937 2.873-3.862z"/><path d="m136 88c0-13.255-10.745-24-24-24h-48c-13.255 0-24 10.745-24 24v5c0 1.657 1.343 3 3 3h90c1.657 0 3-1.343 3-3z"/></g></svg>