<svg id="Layer_3" height="512" viewBox="0 0 64 64" width="512" xmlns="http://www.w3.org/2000/svg" data-name="Layer 3"><path d="m53 44a8.959 8.959 0 0 0 -5.614 1.972l-6.227-6.227a11.945 11.945 0 0 0 2.813-7.187l12.244-.458a3.012 3.012 0 1 0 -.065-2l-12.246.453a11.988 11.988 0 0 0 -5.267-8.552l2.888-5.252a5.02 5.02 0 1 0 -1.752-.963l-2.89 5.255a11.956 11.956 0 0 0 -12.629 1.8l-6.227-6.228a9.012 9.012 0 1 0 -1.414 1.414l6.227 6.228a11.945 11.945 0 0 0 -2.841 7.745 12.083 12.083 0 0 0 .2 2.141l-10.737 2.891a3.973 3.973 0 1 0 .537 1.968c0-.014 0-.026 0-.04l10.728-2.888a12.017 12.017 0 0 0 5.039 6.166l-3.012 6.023a6.034 6.034 0 1 0 1.786.9l3.012-6.023a11.959 11.959 0 0 0 12.2-1.979l6.227 6.227a9 9 0 1 0 7.02-3.386zm-37-28h-10a5 5 0 0 1 5-5 3 3 0 1 1 3-3 3 3 0 0 1 -3 3 5 5 0 0 1 5 5zm16 8a4 4 0 1 1 -4 4 4 4 0 0 1 4-4zm-6 15a6 6 0 0 1 12 0zm22 19a5 5 0 0 1 5-5 3 3 0 1 1 3-3 3 3 0 0 1 -3 3 5 5 0 0 1 5 5z"/></svg>