<svg id="Solid" height="512" viewBox="0 0 512 512" width="512" xmlns="http://www.w3.org/2000/svg"><path d="m321.37 414.028a159.114 159.114 0 0 0 29.426-74.41 99.386 99.386 0 0 1 -12.344.818c-16.833 0-30.268-4.939-40.109-14.779-10.481-10.481-16.918-20.173-22.089-27.961-10.861-16.354-14.927-22.473-42.939-17.805a89.156 89.156 0 0 1 -14.593 1.329c-23.173 0-29.349-12.189-34.058-21.479-3.281-6.471-5.418-10.226-11.194-12.152-13.294-4.431-21.8-11.251-25.291-20.269-5.517-14.266 3.011-29.477 9.239-40.583 1.279-2.281 2.487-4.435 3.427-6.315 1.782-3.559 1.823-9.724.209-17.407a159.9 159.9 0 0 0 -84.43 46.248 37.7 37.7 0 0 1 10.029 10.295c5.363 8.044 14.215 14.28 23.586 20.882 15.824 11.149 33.761 23.786 33.761 47.56 0 20.654-9.075 28.367-17.081 35.171-6.45 5.482-12.02 10.216-15.158 22.769-1.1 4.4-1.908 8.959-2.689 13.368-3.755 21.2-7.973 44.976-47.4 53.407a159.81 159.81 0 0 0 249.76 13.63zm-157.74-92.337a67.99 67.99 0 0 1 24.935-14.611c14.061-4.474 35.358-5.481 56.958 15.132a7.992 7.992 0 0 1 1.133 1.35c5.709 8.564 12.016 9.668 20 11.067 9.554 1.673 22.639 3.965 28.931 22.841 4.263 12.787 1.51 29.689-7.546 46.386a8 8 0 0 1 -6.843 14.452c-.684-.313-1.359-.652-2.039-.975-11.644 14.748-27.3 25.518-43.932 29.819a57.945 57.945 0 0 1 -14.449 2c-8.033 0-14.882-2.166-20.466-6.49-11.128-8.613-16.312-24.713-16.312-50.662 0-7.254-7.022-14.672-13.813-21.846-5.962-6.3-12.127-12.811-14.846-20.434-3.5-9.82-.711-19.249 8.289-28.029z"/><path d="m200 392c0 20.031 3.4 32.822 10.109 38.016 4.566 3.534 11.669 4.089 21.115 1.646 12.5-3.231 24.366-11.164 33.621-22.1-.728-.447-1.466-.882-2.185-1.341a8 8 0 1 1 8.609-13.487c.869.555 1.756 1.085 2.639 1.62.012-.02.024-.04.035-.061 6.777-12.464 9.255-25.4 6.468-33.765-3.275-9.822-7.7-10.6-16.514-12.141-8.714-1.526-20.59-3.606-30.018-17.165-10.281-9.572-20.288-12.763-29.051-12.763-16.911 0-29.2 11.87-29.975 12.634l-.042.041c-8.326 8.116-6.108 12.176 7 26.018 8.523 9.011 18.189 19.222 18.189 32.848zm22.663-34.662a8 8 0 0 1 11.161 1.852 137.319 137.319 0 0 0 12.018 14.559 8 8 0 1 1 -11.605 11.013 153.115 153.115 0 0 1 -13.425-16.262 8 8 0 0 1 1.851-11.162z"/><path d="m256 112a32 32 0 0 0 -64 0c0 12.3 17.591 43.418 32 65.608 14.409-22.19 32-53.308 32-65.608zm-48 0a16 16 0 1 1 16 16 16.019 16.019 0 0 1 -16-16z"/><path d="m178.53 232.411c12.295 4.1 16.791 12.968 20.405 20.1 4.754 9.381 7.9 15.576 31.75 11.6 17.528-2.921 29.478-1.991 38.747 3.015 8.929 4.823 14.129 12.654 20.151 21.721 5.026 7.569 10.723 16.147 20.074 25.5 8.959 8.96 23.184 11.946 42.3 8.946.022-1.095.042-2.19.042-3.289a160.057 160.057 0 0 0 -104.365-150.058c-8 13.382-15.309 24.078-17.051 26.6a8 8 0 0 1 -13.166 0c-2.156-3.122-12.834-18.761-22.807-36.52-.871-.014-1.743-.027-2.61-.027-5.087 0-10.115.249-15.082.716 2.2 11.089 1.62 20.106-1.764 26.866-1.108 2.214-2.406 4.529-3.78 6.98-4.933 8.8-11.072 19.747-8.272 26.987 1.685 4.357 6.875 8.012 15.428 10.863z"/><path d="m52.431 398.152c34.4-5.154 37.03-19.868 40.886-41.635.829-4.679 1.686-9.517 2.922-14.458 4.385-17.537 13.219-25.046 20.318-31.079 7.136-6.065 11.443-9.726 11.443-22.98 0-15.474-12.5-24.282-26.976-34.479-10.159-7.158-20.664-14.559-27.68-25.083a21.046 21.046 0 0 0 -7.344-6.932 159.684 159.684 0 0 0 -13.569 176.646z"/><path d="m429.855 37.287-45.855 27.513a8 8 0 0 1 -9.772-1.2l-5.657-5.657a16 16 0 0 0 -22.814.189c-6.036 6.234-5.778 16.474.575 22.828l5.268 5.268a8 8 0 0 1 1.2 9.772l-27.514 45.856a7.989 7.989 0 0 0 1.2 9.773l8.137 8.138 39.6-39.6a8 8 0 0 1 11.313 0l22.628 22.627a8 8 0 0 1 0 11.313l-2.481 2.481a7.987 7.987 0 0 0 -1.2 9.772l5.272 8.787 53.392-53.392-8.787-5.272a7.988 7.988 0 0 0 -9.772 1.2l-2.481 2.481a8 8 0 0 1 -11.313 0l-22.627-22.625a8 8 0 0 1 0-11.313l39.6-39.6-8.138-8.137a7.991 7.991 0 0 0 -9.774-1.202z"/><path d="m337.672 431.841c-.127 0-.253 0-.381-.008-3.78-.178-7.607-.5-11.375-.959-3.193-.389-15.411-.884-18.564-1.47a8 8 0 0 1 2.927-15.731c2.825.526 14.709.97 17.572 1.318 3.376.411 6.8.7 10.189.859a8 8 0 0 1 -.368 15.991z"/><path d="m372.464 429.228a8 8 0 0 1 -1.561-15.846 135.3 135.3 0 0 0 18.176-4.98 8 8 0 0 1 5.3 15.1 151.266 151.266 0 0 1 -20.333 5.571 8.041 8.041 0 0 1 -1.582.155z"/><path d="m423.022 408.488a8 8 0 0 1 -4.395-14.691 136.968 136.968 0 0 0 15.031-11.416 8 8 0 1 1 10.534 12.043 153.151 153.151 0 0 1 -16.79 12.752 7.964 7.964 0 0 1 -4.38 1.312z"/><path d="m462.22 370.407a8 8 0 0 1 -6.554-12.578 135.461 135.461 0 0 0 9.689-16.192 8 8 0 1 1 14.271 7.235 151.5 151.5 0 0 1 -10.838 18.111 7.991 7.991 0 0 1 -6.568 3.424z"/><path d="m484.36 320.417a8.01 8.01 0 0 1 -7.807-9.783 137.534 137.534 0 0 0 2.438-13.984c.188-1.544.353-3.114.488-4.67a8 8 0 0 1 15.94 1.393c-.152 1.736-.335 3.49-.545 5.212a154.163 154.163 0 0 1 -2.722 15.61 8.005 8.005 0 0 1 -7.792 6.222z"/><path d="m486.246 265.786a8 8 0 0 1 -7.893-6.755 135.1 135.1 0 0 0 -4.237-18.376 8 8 0 0 1 15.3-4.677 151.246 151.246 0 0 1 4.74 20.56 8 8 0 0 1 -6.656 9.149 8.131 8.131 0 0 1 -1.254.099z"/><path d="m467.582 214.423a8 8 0 0 1 -6.87-3.888 136.9 136.9 0 0 0 -10.8-15.478 8 8 0 0 1 12.456-10.043 153.007 153.007 0 0 1 12.071 17.294 8 8 0 0 1 -6.853 12.115z"/></svg>