<svg height="512" width="512" xmlns="http://www.w3.org/2000/svg"><circle cx="256" cy="304" r="80"/><path d="M256 432c70.58 0 128-57.42 128-128s-57.42-128-128-128-128 57.42-128 128 57.42 128 128 128zm0-224c52.93 0 96 43.07 96 96s-43.07 96-96 96-96-43.07-96-96 43.07-96 96-96z"/><path d="M488 112H24c-13.255 0-24 10.745-24 24v53a3 3 0 003 3h161.537c.675 0 1.329-.233 1.857-.654 52.445-41.781 126.69-41.842 179.211 0a2.981 2.981 0 001.857.654H509a3 3 0 003-3v-53c0-13.255-10.745-24-24-24zm-376 48H64c-4.42 0-8-3.58-8-8s3.58-8 8-8h48c4.42 0 8 3.58 8 8s-3.58 8-8 8z"/><circle cx="440" cy="416" r="16"/><path d="M400 304c0 79.775-65.212 144.61-145.127 143.996-78.303-.602-142.226-64.492-142.868-142.794-.293-35.747 12.513-68.562 33.893-93.92 1.095-1.299.174-3.281-1.525-3.281H3a3 3 0 00-3 3v245c0 13.255 10.745 24 24 24h464c13.255 0 24-10.745 24-24V211a3 3 0 00-3-3H367.627c-1.698 0-2.622 1.981-1.527 3.279C387.242 236.353 400 268.718 400 304zm40 80c17.64 0 32 14.35 32 32s-14.36 32-32 32-32-14.35-32-32 14.36-32 32-32zM339.08 49.1C336.01 38.87 326.78 32 316.1 32H195.9c-10.68 0-19.91 6.87-22.98 17.1l-12.911 43.038A3 3 0 00162.882 96h186.236a3 3 0 002.873-3.862zM136 88c0-13.255-10.745-24-24-24H64c-13.255 0-24 10.745-24 24v5a3 3 0 003 3h90a3 3 0 003-3z"/></svg>