<svg height="512" viewBox="0 0 511.976 511.976" width="512" xmlns="http://www.w3.org/2000/svg"><circle cx="256" cy="106.024" r="15"/><circle cx="241" cy="391.024" r="30"/><circle cx="121" cy="301.024" r="30"/><circle cx="136" cy="166.024" r="15"/><path d="M256 .024c-142.651 0-256 116.883-256 256 0 144.379 118.224 255.927 251.547 255.927 55.781 0 103.242-41.474 108.838-94.516 2.021-19.028-1.055-38.145-8.965-55.312-6.826-14.81-1.26-28.257 6.211-35.889 7.471-7.646 20.83-13.433 35.801-6.943 28.072 13.453 44.808 12.933 58.686 10.254 34.541-6.812 60.264-39.609 59.854-76.304C510.477 114.169 395.102.024 256 .024zm-120 121c24.814 0 45 20.186 45 45s-20.186 45-45 45-45-20.186-45-45 20.186-45 45-45zm-15 240c-33.076 0-60-26.909-60-60s26.924-60 60-60 60 26.909 60 60-26.924 60-60 60zm120 90c-33.076 0-60-26.909-60-60s26.924-60 60-60 60 26.909 60 60-26.924 60-60 60zm15-300c-24.814 0-45-20.186-45-45s20.186-45 45-45 45 20.186 45 45-20.186 45-45 45zm120 60c-24.814 0-45-20.186-45-45s20.186-45 45-45 45 20.186 45 45-20.186 45-45 45z"/><circle cx="376" cy="166.024" r="15"/></svg>