<svg height="512" width="512" xmlns="http://www.w3.org/2000/svg"><path d="M497 26H15C6.716 26 0 32.716 0 41v255h512V41c0-8.284-6.716-15-15-15zM176.443 235.526a14.922 14.922 0 01-7.504 2.023c-5.177.001-10.212-2.682-12.994-7.484l-36.363-62.777a15 15 0 01.133-15.263l36.363-60.315c4.277-7.095 13.495-9.379 20.591-5.102 7.095 4.277 9.378 13.496 5.102 20.591l-31.786 52.724 31.919 55.106c4.153 7.167 1.708 16.345-5.461 20.497zM297.013 98.47l-54.15 136.147c-2.338 5.879-7.979 9.46-13.942 9.46-1.845 0-3.721-.342-5.539-1.066-7.698-3.062-11.456-11.783-8.395-19.481l54.15-136.148c3.061-7.698 11.784-11.458 19.481-8.395 7.698 3.063 11.457 11.785 8.395 19.483zm95.405 68.818l-36.363 62.777c-2.781 4.801-7.817 7.484-12.994 7.484a14.92 14.92 0 01-7.504-2.023c-7.168-4.152-9.613-13.33-5.461-20.498l31.919-55.106-31.786-52.724c-4.277-7.095-1.993-16.313 5.102-20.591 7.096-4.277 16.313-1.993 20.591 5.102l36.363 60.315a15.002 15.002 0 01.133 15.264zM0 381c0 8.284 6.716 15 15 15h482c8.284 0 15-6.716 15-15v-55H0zm331 75h-15v-30H196v30h-15c-8.284 0-15 6.716-15 15s6.716 15 15 15h150c8.284 0 15-6.716 15-15s-6.716-15-15-15z"/></svg>