<svg height="512" width="512" xmlns="http://www.w3.org/2000/svg"><path d="M220.059 271.312l16.047 4.012c.282.07.501.289.571.57l4.012 16.048c1.788 7.15 7.941 11.954 15.312 11.954s13.524-4.804 15.312-11.954l4.012-16.048c.07-.281.289-.5.571-.57l16.047-4.012c7.151-1.788 11.955-7.941 11.955-15.312s-4.804-13.524-11.956-15.312l-16.047-4.012a.783.783 0 01-.571-.57l-4.012-16.048c-1.788-7.15-7.941-11.954-15.312-11.954s-13.524 4.804-15.312 11.954l-4.012 16.048a.782.782 0 01-.57.57l-16.048 4.012c-7.151 1.788-11.955 7.941-11.955 15.312s4.804 13.524 11.956 15.312zm3.637-16.072l16.049-4.012a15.755 15.755 0 0011.483-11.484l4.012-16.048c.076-.305.148-.593.76-.593s.684.288.76.593l4.012 16.048a15.755 15.755 0 0011.484 11.484l16.047 4.012c.305.076.594.148.594.76s-.289.684-.593.76l-16.048 4.012a15.754 15.754 0 00-11.483 11.484l-4.012 16.048c-.076.305-.149.593-.76.593-.612 0-.684-.288-.76-.593l-4.012-16.048a15.755 15.755 0 00-11.484-11.484l-16.047-4.012c-.305-.076-.594-.148-.594-.76s.288-.684.592-.76z"/><path d="M197.884 208.706a7.5 7.5 0 00-10.392 2.124c-8.859 13.413-13.542 29.033-13.542 45.17 0 45.242 36.808 82.05 82.05 82.05s82.05-36.808 82.05-82.05-36.808-82.05-82.05-82.05c-16.138 0-31.757 4.683-45.169 13.542a7.5 7.5 0 008.268 12.516c10.952-7.234 23.712-11.058 36.901-11.058 36.971 0 67.05 30.078 67.05 67.05s-30.079 67.05-67.05 67.05-67.05-30.078-67.05-67.05c0-13.189 3.824-25.949 11.059-36.902a7.5 7.5 0 00-2.125-10.392z"/><path d="M273.184 461.594c4.128-.341 7.198-3.964 6.857-8.092s-3.979-7.21-8.092-6.858c-5.264.435-10.63.655-15.95.655-105.483 0-191.3-85.816-191.3-191.3 0-33.634 8.849-66.708 25.589-95.645a7.5 7.5 0 00-12.984-7.512C59.246 184.061 49.7 219.732 49.7 256c0 113.754 92.546 206.3 206.3 206.3 5.73 0 11.512-.238 17.184-.706zM187.232 61.441a7.5 7.5 0 004.999 14.142C212.664 68.362 234.118 64.7 256 64.7c105.483 0 191.3 85.816 191.3 191.3 0 36.062-10.003 70.934-28.981 101.276a23.998 23.998 0 00-7.174-1.092c-13.271 0-24.067 10.796-24.067 24.066 0 4.36 1.172 8.45 3.208 11.981-15.924 15.713-34.251 28.396-54.579 37.726a7.5 7.5 0 106.257 13.632c22.197-10.188 42.183-24.077 59.499-41.314a23.929 23.929 0 009.682 2.041c13.271 0 24.066-10.796 24.066-24.066a23.937 23.937 0 00-4.674-14.232C451.331 333.104 462.3 295.202 462.3 256c0-113.754-92.546-206.3-206.3-206.3-23.589 0-46.726 3.95-68.768 11.741zm223.913 327.875c-5 0-9.067-4.067-9.067-9.066s4.067-9.066 9.067-9.066c4.999 0 9.066 4.067 9.066 9.066s-4.067 9.066-9.066 9.066z"/><path d="M7.5 263.5A7.5 7.5 0 0015 256c0-61.486 22.926-119.54 64.698-164.3a32.169 32.169 0 0018.919 6.133c17.838 0 32.35-14.512 32.35-32.35a32.14 32.14 0 00-3.038-13.665C166.268 27.713 210.387 15 256 15c4.142 0 7.5-3.357 7.5-7.5S260.142 0 256 0c-49.014 0-96.41 13.821-137.472 40.016-5.495-4.305-12.406-6.882-19.912-6.882-17.838 0-32.35 14.512-32.35 32.35 0 5.322 1.3 10.344 3.587 14.777C24.762 127.966 0 190.133 0 256a7.5 7.5 0 007.5 7.5zM98.617 48.134c9.567 0 17.35 7.783 17.35 17.35s-7.783 17.35-17.35 17.35-17.35-7.783-17.35-17.35 7.783-17.35 17.35-17.35zM504.5 248.5a7.5 7.5 0 00-7.5 7.5c0 132.888-108.112 241-241 241-4.142 0-7.5 3.357-7.5 7.5s3.358 7.5 7.5 7.5c68.38 0 132.668-26.629 181.02-74.98C485.372 388.668 512 324.38 512 256a7.5 7.5 0 00-7.5-7.5zM359.452 140.816a32.148 32.148 0 00-17.123 4.922c-24.561-19.24-54.98-29.771-86.329-29.771-68.502 0-126.825 49.724-138.078 116.619C107.317 235.097 99.4 244.638 99.4 256s7.916 20.903 18.521 23.414C129.174 346.31 187.497 396.033 256 396.033c32.032 0 62.179-10.527 87.183-30.443 3.24-2.58 3.774-7.299 1.193-10.539s-7.298-3.774-10.539-1.193c-22.32 17.778-49.236 27.176-77.837 27.176-60.754 0-112.537-43.794-123.077-102.905 8.583-3.681 14.611-12.213 14.611-22.128s-6.028-18.446-14.61-22.128c10.54-59.111 62.324-102.905 123.077-102.905 27.422 0 54.042 9.029 75.73 25.546a32.157 32.157 0 00-4.628 16.654c0 17.838 14.512 32.35 32.35 32.35 3.569 0 7-.589 10.213-1.661 7.451 16.254 11.368 34.135 11.368 52.145 0 28.602-9.397 55.517-27.176 77.837a7.5 7.5 0 0011.732 9.346c19.916-25.004 30.443-55.15 30.443-87.183 0-20.808-4.682-41.465-13.557-60.137 5.762-5.844 9.326-13.86 9.326-22.696 0-17.84-14.512-32.353-32.35-32.353zM123.467 246.934c4.999 0 9.066 4.067 9.066 9.066s-4.067 9.066-9.066 9.066-9.067-4.067-9.067-9.066 4.067-9.066 9.067-9.066zm218.635-73.767c0-9.567 7.783-17.351 17.35-17.351s17.35 7.783 17.35 17.351c0 9.566-7.783 17.35-17.35 17.35s-17.35-7.784-17.35-17.35zM355.4 31.566h9.067v9.067c0 4.143 3.358 7.5 7.5 7.5s7.5-3.357 7.5-7.5v-9.067h9.066c4.142 0 7.5-3.357 7.5-7.5s-3.358-7.5-7.5-7.5h-9.066V7.5c0-4.143-3.358-7.5-7.5-7.5s-7.5 3.357-7.5 7.5v9.066H355.4c-4.142 0-7.5 3.357-7.5 7.5s3.358 7.5 7.5 7.5zM156.6 480.434h-9.067v-9.067c0-4.143-3.358-7.5-7.5-7.5s-7.5 3.357-7.5 7.5v9.067h-9.066c-4.142 0-7.5 3.357-7.5 7.5s3.358 7.5 7.5 7.5h9.066v9.066c0 4.143 3.358 7.5 7.5 7.5s7.5-3.357 7.5-7.5v-9.066h9.067c4.142 0 7.5-3.357 7.5-7.5s-3.358-7.5-7.5-7.5zM48.917 381.033a7.5 7.5 0 00-7.5 7.5V405.1c0 4.143 3.358 7.5 7.5 7.5s7.5-3.357 7.5-7.5v-16.566a7.5 7.5 0 00-7.5-7.501zm0 66.267a7.5 7.5 0 00-7.5 7.5v16.566c0 4.143 3.358 7.5 7.5 7.5s7.5-3.357 7.5-7.5V454.8a7.5 7.5 0 00-7.5-7.5zm41.417-24.85H73.767c-4.142 0-7.5 3.357-7.5 7.5s3.358 7.5 7.5 7.5h16.567c4.142 0 7.5-3.357 7.5-7.5s-3.358-7.5-7.5-7.5zm-66.267 0H7.5c-4.142 0-7.5 3.357-7.5 7.5s3.358 7.5 7.5 7.5h16.567c4.142 0 7.5-3.357 7.5-7.5s-3.358-7.5-7.5-7.5zM463.083 64.7a7.5 7.5 0 007.5-7.5V40.634c0-4.143-3.358-7.5-7.5-7.5s-7.5 3.357-7.5 7.5V57.2a7.5 7.5 0 007.5 7.5zm0 66.267a7.5 7.5 0 007.5-7.5V106.9c0-4.143-3.358-7.5-7.5-7.5s-7.5 3.357-7.5 7.5v16.566a7.5 7.5 0 007.5 7.501zm24.85-41.417H504.5c4.142 0 7.5-3.357 7.5-7.5s-3.358-7.5-7.5-7.5h-16.567a7.5 7.5 0 000 15zm-66.266 0h16.567c4.142 0 7.5-3.357 7.5-7.5s-3.358-7.5-7.5-7.5h-16.567a7.5 7.5 0 00-7.5 7.5 7.5 7.5 0 007.5 7.5z"/></svg>