<svg height="512pt" viewBox="0 -39 512.002 512" width="512pt" xmlns="http://www.w3.org/2000/svg"><path d="M504.098 11.863C497.84 4.215 488.473 0 477.718 0c-5.85 0-12.042 1.234-18.41 3.664L25.907 169.105c-23 8.778-26.097 21.95-25.898 29.024.199 7.07 4.039 20.047 27.5 27.508.14.047.281.086.422.129l60.78 17.39 296.017-151.23c7.375-3.774 16.414-.844 20.183 6.535 2.961 5.797 1.774 12.61-2.445 17.094l.012.011-164.586 174.88-4.696 19.027L291.97 356.8l81.445 65.582c.07.055.14.113.215.168 8.96 6.953 18.75 10.625 28.308 10.629 18.68 0 33.551-13.825 37.883-35.215l71.012-350.64c2.848-14.071.457-26.669-6.734-35.462zm0 0"/><path d="M209.715 279.438a14.956 14.956 0 013.633-6.688l107.996-114.754L120.94 260.38l45.504 130.137c2.594 7.414 6.453 13.726 11.227 18.668l32.035-129.75zm-4.113 141.792c10.816-.09 21.445-4.652 30.757-13.226l33.293-30.656-44.39-35.743zm0 0"/></svg>