<svg height="512" width="512" xmlns="http://www.w3.org/2000/svg"><path d="M321.37 414.028a159.114 159.114 0 0029.426-74.41 99.386 99.386 0 01-12.344.818c-16.833 0-30.268-4.939-40.109-14.779-10.481-10.481-16.918-20.173-22.089-27.961-10.861-16.354-14.927-22.473-42.939-17.805a89.156 89.156 0 01-14.593 1.329c-23.173 0-29.349-12.189-34.058-21.479-3.281-6.471-5.418-10.226-11.194-12.152-13.294-4.431-21.8-11.251-25.291-20.269-5.517-14.266 3.011-29.477 9.239-40.583 1.279-2.281 2.487-4.435 3.427-6.315 1.782-3.559 1.823-9.724.209-17.407a159.9 159.9 0 00-84.43 46.248 37.7 37.7 0 0110.029 10.295c5.363 8.044 14.215 14.28 23.586 20.882C126.063 251.589 144 264.226 144 288c0 20.654-9.075 28.367-17.081 35.171-6.45 5.482-12.02 10.216-15.158 22.769-1.1 4.4-1.908 8.959-2.689 13.368-3.755 21.2-7.973 44.976-47.4 53.407a159.81 159.81 0 00249.76 13.63zm-157.74-92.337a67.99 67.99 0 0124.935-14.611c14.061-4.474 35.358-5.481 56.958 15.132a7.992 7.992 0 011.133 1.35c5.709 8.564 12.016 9.668 20 11.067 9.554 1.673 22.639 3.965 28.931 22.841 4.263 12.787 1.51 29.689-7.546 46.386a8 8 0 01-6.843 14.452c-.684-.313-1.359-.652-2.039-.975-11.644 14.748-27.3 25.518-43.932 29.819a57.945 57.945 0 01-14.449 2c-8.033 0-14.882-2.166-20.466-6.49C189.184 434.049 184 417.949 184 392c0-7.254-7.022-14.672-13.813-21.846-5.962-6.3-12.127-12.811-14.846-20.434-3.5-9.82-.711-19.249 8.289-28.029z"/><path d="M200 392c0 20.031 3.4 32.822 10.109 38.016 4.566 3.534 11.669 4.089 21.115 1.646 12.5-3.231 24.366-11.164 33.621-22.1-.728-.447-1.466-.882-2.185-1.341a8 8 0 118.609-13.487c.869.555 1.756 1.085 2.639 1.62l.035-.061c6.777-12.464 9.255-25.4 6.468-33.765-3.275-9.822-7.7-10.6-16.514-12.141-8.714-1.526-20.59-3.606-30.018-17.165-10.281-9.572-20.288-12.763-29.051-12.763-16.911 0-29.2 11.87-29.975 12.634l-.042.041c-8.326 8.116-6.108 12.176 7 26.018C190.334 368.163 200 378.374 200 392zm22.663-34.662a8 8 0 0111.161 1.852 137.319 137.319 0 0012.018 14.559 8 8 0 11-11.605 11.013 153.115 153.115 0 01-13.425-16.262 8 8 0 011.851-11.162zM256 112a32 32 0 00-64 0c0 12.3 17.591 43.418 32 65.608 14.409-22.19 32-53.308 32-65.608zm-48 0a16 16 0 1116 16 16.019 16.019 0 01-16-16z"/><path d="M178.53 232.411c12.295 4.1 16.791 12.968 20.405 20.1 4.754 9.381 7.9 15.576 31.75 11.6 17.528-2.921 29.478-1.991 38.747 3.015 8.929 4.823 14.129 12.654 20.151 21.721 5.026 7.569 10.723 16.147 20.074 25.5 8.959 8.96 23.184 11.946 42.3 8.946.022-1.095.042-2.19.042-3.289a160.057 160.057 0 00-104.365-150.058c-8 13.382-15.309 24.078-17.051 26.6a8 8 0 01-13.166 0c-2.156-3.122-12.834-18.761-22.807-36.52-.871-.014-1.743-.027-2.61-.027-5.087 0-10.115.249-15.082.716 2.2 11.089 1.62 20.106-1.764 26.866-1.108 2.214-2.406 4.529-3.78 6.98-4.933 8.8-11.072 19.747-8.272 26.987 1.685 4.357 6.875 8.012 15.428 10.863zM52.431 398.152c34.4-5.154 37.03-19.868 40.886-41.635.829-4.679 1.686-9.517 2.922-14.458 4.385-17.537 13.219-25.046 20.318-31.079C123.693 304.915 128 301.254 128 288c0-15.474-12.5-24.282-26.976-34.479-10.159-7.158-20.664-14.559-27.68-25.083A21.046 21.046 0 0066 221.506a159.684 159.684 0 00-13.569 176.646zM429.855 37.287L384 64.8a8 8 0 01-9.772-1.2l-5.657-5.657a16 16 0 00-22.814.189c-6.036 6.234-5.778 16.474.575 22.828l5.268 5.268A8 8 0 01352.8 96l-27.514 45.856a7.989 7.989 0 001.2 9.773l8.137 8.138 39.6-39.6a8 8 0 0111.313 0l22.628 22.627a8 8 0 010 11.313l-2.481 2.481a7.987 7.987 0 00-1.2 9.772l5.272 8.787 53.392-53.392-8.787-5.272a7.988 7.988 0 00-9.772 1.2l-2.481 2.481a8 8 0 01-11.313 0l-22.627-22.625a8 8 0 010-11.313l39.6-39.6-8.138-8.137a7.991 7.991 0 00-9.774-1.202zm-92.183 394.554c-.127 0-.253 0-.381-.008-3.78-.178-7.607-.5-11.375-.959-3.193-.389-15.411-.884-18.564-1.47a8 8 0 012.927-15.731c2.825.526 14.709.97 17.572 1.318 3.376.411 6.8.7 10.189.859a8 8 0 01-.368 15.991zm34.792-2.613a8 8 0 01-1.561-15.846 135.3 135.3 0 0018.176-4.98 8 8 0 015.3 15.1 151.266 151.266 0 01-20.333 5.571 8.041 8.041 0 01-1.582.155zm50.558-20.74a8 8 0 01-4.395-14.691 136.968 136.968 0 0015.031-11.416 8 8 0 1110.534 12.043 153.151 153.151 0 01-16.79 12.752 7.964 7.964 0 01-4.38 1.312zm39.198-38.081a8 8 0 01-6.554-12.578 135.461 135.461 0 009.689-16.192 8 8 0 1114.271 7.235 151.5 151.5 0 01-10.838 18.111 7.991 7.991 0 01-6.568 3.424zm22.14-49.99a8.01 8.01 0 01-7.807-9.783 137.534 137.534 0 002.438-13.984c.188-1.544.353-3.114.488-4.67a8 8 0 0115.94 1.393c-.152 1.736-.335 3.49-.545 5.212a154.163 154.163 0 01-2.722 15.61 8.005 8.005 0 01-7.792 6.222zm1.886-54.631a8 8 0 01-7.893-6.755 135.1 135.1 0 00-4.237-18.376 8 8 0 0115.3-4.677 151.246 151.246 0 014.74 20.56 8 8 0 01-6.656 9.149 8.131 8.131 0 01-1.254.099zm-18.664-51.363a8 8 0 01-6.87-3.888 136.9 136.9 0 00-10.8-15.478 8 8 0 0112.456-10.043 153.007 153.007 0 0112.071 17.294 8 8 0 01-6.853 12.115z"/></svg>